<?xml version="1.0" standalone="no"?>
<!DOCTYPE svg PUBLIC "-//W3C//DTD SVG 20010904//EN"
 "http://www.w3.org/TR/2001/REC-SVG-20010904/DTD/svg10.dtd">
<svg version="1.0" xmlns="http://www.w3.org/2000/svg"
 width="176.000000pt" height="184.000000pt" viewBox="0 0 176.000000 184.000000"
 preserveAspectRatio="xMidYMid meet">

<g transform="translate(0.000000,184.000000) scale(0.100000,-0.100000)"
fill="#000000" stroke="none">
<path d="M770 1655 c-204 -46 -318 -168 -328 -351 -6 -118 14 -177 84 -254 65
-70 125 -102 334 -179 180 -66 202 -76 239 -107 77 -64 86 -179 19 -241 -45
-42 -96 -57 -198 -56 -116 1 -206 19 -330 68 -52 20 -102 39 -111 41 -13 5
-18 -11 -28 -103 -7 -59 -15 -114 -17 -121 -5 -17 42 -36 159 -67 233 -61 457
-55 612 15 151 68 222 190 213 365 -10 200 -127 303 -477 420 -201 67 -261
114 -261 207 0 168 276 211 570 88 41 -17 80 -34 87 -36 11 -6 20 56 26 180
l2 59 -55 19 c-128 45 -205 59 -340 63 -96 4 -154 1 -200 -10z"/>
</g>
</svg>
